STARTFONT 2.1
FONT smiley.0
SIZE 34 72 72
FONTBOUNDINGBOX 31 34 0 0
STARTPROPERTIES 4
FONT_DESCENT 0
FONT_ASCENT 34
DEFAULT_CHAR 28
COPYRIGHT "Copyright (c) 1992 AT&T - All rights reserved."
ENDPROPERTIES
CHARS 31
STARTCHAR ch-28
ENCODING 28
SWIDTH 911 0
DWIDTH 31 0
BBX 31 34 0 0
BITMAP
001ff800
01ffff80
07ffffe0
0ffffff0
1ffffff8
3ffffffc
7ffffffc
7ffffffe
fffffffe
fffffffe
fffffffe
fffffffe
7ffffffe
3ffffffc
1ffffff8
07ffffe0
03f7efc0
0007e000
0007e000
0007e000
000ff000
000ff000
001ff800
001ff800
007ffe00
00000000
00000000
00000000
00000000
00000000
00000000
00000000
00000000
00000000
ENDCHAR
STARTCHAR ch-29
ENCODING 29
SWIDTH 911 0
DWIDTH 31 0
BBX 31 34 0 0
BITMAP
00000000
00000000
00000000
00000000
00000000
00000000
00000000
00000000
00000000
00000000
00000000
00000000
00000000
00000000
00000000
00000000
00000000
00038000
00044000
00082000
00082000
00082000
00082000
00082000
00393800
00492400
00892200
00892200
00892200
00892200
00fffe00
00000000
00000000
00000000
ENDCHAR
STARTCHAR ch-30
ENCODING 30
SWIDTH 911 0
DWIDTH 31 0
BBX 31 34 0 0
BITMAP
003ff800
00800200
02000080
04000040
08000020
10000010
20000008
20000008
40301804
40783c04
80783c02
80783c02
80301802
80000002
80000002
80000002
80000002
80000002
80000002
800fe002
80701c02
4d800364
42000084
21000108
21000108
10000010
08000020
04000040
02000080
00800200
003ff800
00000000
00000000
00000000
ENDCHAR
STARTCHAR ch-31
ENCODING 31
SWIDTH 911 0
DWIDTH 31 0
BBX 31 34 0 0
BITMAP
003ff800
00fffe00
03ffff80
07ffffc0
0fffffe0
1ffffff0
3ffffff8
3ffffff8
7fcfe7fc
7f87c3fc
ff87c3fe
ff87c3fe
ffcfe7fe
fffffffe
fffffffe
fffffffe
fefffefe
fefffefe
fdffff7e
f27ffc9e
ff8fe3fe
7ff01ffc
7ffffffc
3ffffff8
3ffffff8
1ffffff0
0fffffe0
07ffffc0
03ffff80
00fffe00
003ff800
00000000
00000000
00000000
ENDCHAR
STARTCHAR ch-32
ENCODING 32
SWIDTH 294 0
DWIDTH 10 0
BBX 10 34 0 0
BITMAP
00000000
00000000
00000000
00000000
00000000
00000000
00000000
00000000
00000000
00000000
00000000
00000000
00000000
00000000
00000000
00000000
00000000
00000000
00000000
00000000
00000000
00000000
00000000
00000000
00000000
00000000
00000000
00000000
00000000
00000000
00000000
00000000
00000000
00000000
ENDCHAR
STARTCHAR ch-48
ENCODING 48
SWIDTH 441 0
DWIDTH 15 0
BBX 15 34 0 0
BITMAP
00000000
00000000
00000000
00000000
00000000
00000000
00000000
00000000
00000000
00000000
00000000
00000000
00000000
1ff80000
300c0000
700c0000
500c0000
500c0000
500c0000
500c0000
500c0000
500c0000
500c0000
500c0000
500c0000
500c0000
500c0000
500c0000
500c0000
500c0000
700c0000
3ff80000
00000000
00000000
ENDCHAR
STARTCHAR ch-49
ENCODING 49
SWIDTH 441 0
DWIDTH 15 0
BBX 15 34 0 0
BITMAP
00000000
00000000
00000000
00000000
00000000
00000000
00000000
00000000
00000000
00000000
00000000
00000000
00000000
00200000
00e00000
01a00000
07a00000
04a00000
00a00000
00a00000
00a00000
00a00000
00a00000
00a00000
00a00000
00a00000
00a00000
00a00000
00a00000
00a00000
00a00000
07fc0000
00000000
00000000
ENDCHAR
STARTCHAR ch-50
ENCODING 50
SWIDTH 441 0
DWIDTH 15 0
BBX 15 34 0 0
BITMAP
00000000
00000000
00000000
00000000
00000000
00000000
00000000
00000000
00000000
00000000
00000000
00000000
00000000
1ff80000
380c0000
300c0000
600c0000
400c0000
000c0000
000c0000
00700000
01c00000
07000000
38000000
70000000
50000000
50000000
50040000
50040000
500c0000
500c0000
7ffc0000
00000000
00000000
ENDCHAR
STARTCHAR ch-51
ENCODING 51
SWIDTH 441 0
DWIDTH 15 0
BBX 15 34 0 0
BITMAP
00000000
00000000
00000000
00000000
00000000
00000000
00000000
00000000
00000000
00000000
00000000
00000000
00000000
1ff80000
300c0000
700c0000
700c0000
300c0000
000c0000
000c0000
020c0000
030c0000
03f80000
038c0000
030c0000
000c0000
000c0000
100c0000
300c0000
700c0000
700c0000
3ff80000
00000000
00000000
ENDCHAR
STARTCHAR ch-52
ENCODING 52
SWIDTH 441 0
DWIDTH 15 0
BBX 15 34 0 0
BITMAP
00000000
00000000
00000000
00000000
00000000
00000000
00000000
00000000
00000000
00000000
00000000
00000000
00000000
00080000
00180000
00280000
00680000
00a80000
01280000
02280000
04280000
08280000
10280000
20280000
7ffc0000
00280000
00280000
00280000
00280000
00280000
00280000
00380000
00000000
00000000
ENDCHAR
STARTCHAR ch-53
ENCODING 53
SWIDTH 441 0
DWIDTH 15 0
BBX 15 34 0 0
BITMAP
00000000
00000000
00000000
00000000
00000000
00000000
00000000
00000000
00000000
00000000
00000000
00000000
00000000
7ffc0000
50000000
50000000
50000000
50000000
50000000
50000000
50000000
50000000
7ff80000
000c0000
000c0000
000c0000
700c0000
500c0000
500c0000
500c0000
700c0000
3ff80000
00000000
00000000
ENDCHAR
STARTCHAR ch-54
ENCODING 54
SWIDTH 441 0
DWIDTH 15 0
BBX 15 34 0 0
BITMAP
00000000
00000000
00000000
00000000
00000000
00000000
00000000
00000000
00000000
00000000
00000000
00000000
00000000
00f80000
01880000
03f80000
03800000
07000000
0e000000
1e000000
3c000000
38000000
7ff80000
500c0000
500c0000
500c0000
500c0000
500c0000
500c0000
500c0000
700c0000
3ff80000
00000000
00000000
ENDCHAR
STARTCHAR ch-55
ENCODING 55
SWIDTH 441 0
DWIDTH 15 0
BBX 15 34 0 0
BITMAP
00000000
00000000
00000000
00000000
00000000
00000000
00000000
00000000
00000000
00000000
00000000
00000000
00000000
7ffc0000
50140000
503c0000
50380000
70700000
00700000
00a00000
01e00000
01c00000
03800000
03800000
05000000
0f000000
0e000000
1c000000
1c000000
28000000
78000000
70000000
00000000
00000000
ENDCHAR
STARTCHAR ch-56
ENCODING 56
SWIDTH 441 0
DWIDTH 15 0
BBX 15 34 0 0
BITMAP
00000000
00000000
00000000
00000000
00000000
00000000
00000000
00000000
00000000
00000000
00000000
00000000
00000000
1ff80000
300c0000
700c0000
500c0000
500c0000
500c0000
500c0000
500c0000
700c0000
3ff80000
300c0000
500c0000
500c0000
500c0000
500c0000
500c0000
500c0000
700c0000
3ff80000
00000000
00000000
ENDCHAR
STARTCHAR ch-57
ENCODING 57
SWIDTH 441 0
DWIDTH 15 0
BBX 15 34 0 0
BITMAP
00000000
00000000
00000000
00000000
00000000
00000000
00000000
00000000
00000000
00000000
00000000
00000000
00000000
1ff80000
300c0000
700c0000
500c0000
500c0000
500c0000
500c0000
500c0000
700c0000
3ffc0000
001c0000
00380000
00700000
00f00000
01e00000
01c00000
03800000
07000000
07000000
00000000
00000000
ENDCHAR
STARTCHAR ch-65
ENCODING 65
SWIDTH 647 0
DWIDTH 22 0
BBX 22 34 0 0
BITMAP
00000000
00000000
00000000
00000000
00000000
00000000
00000000
00000000
00000000
00000000
00000000
00000000
00000000
00200000
00600000
00f00000
00d00000
00d00000
00f80000
01a80000
013c0000
01140000
031c0000
020e0000
060a0000
040f0000
07fd0000
0c070000
08038000
18028000
1003c000
7c07f000
00000000
00000000
ENDCHAR
STARTCHAR ch-68
ENCODING 68
SWIDTH 441 0
DWIDTH 15 0
BBX 15 34 0 0
BITMAP
00000000
00000000
00000000
00000000
00000000
00000000
00000000
00000000
00000000
00000000
00000000
00000000
00000000
7ffc0000
14060000
14060000
14040000
14040000
14040000
14040000
14040000
14040000
14040000
14040000
14040000
14040000
14040000
14040000
14040000
14040000
14060000
7ffe0000
00000000
00000000
ENDCHAR
STARTCHAR ch-69
ENCODING 69
SWIDTH 470 0
DWIDTH 16 0
BBX 16 34 0 0
BITMAP
00000000
00000000
00000000
00000000
00000000
00000000
00000000
00000000
00000000
00000000
00000000
00000000
00000000
7fff0000
14070000
14030000
14030000
14010000
14000000
14180000
14180000
14380000
17e80000
14280000
14380000
14180000
14180000
14010000
14010000
14030000
14030000
7fff0000
00000000
00000000
ENDCHAR
STARTCHAR ch-72
ENCODING 72
SWIDTH 529 0
DWIDTH 18 0
BBX 18 34 0 0
BITMAP
00000000
00000000
00000000
00000000
00000000
00000000
00000000
00000000
00000000
00000000
00000000
00000000
00000000
7e0fc000
14050000
14050000
14050000
14050000
14050000
14050000
14050000
14050000
17fd0000
14050000
14050000
14050000
14050000
14050000
14050000
14050000
14050000
7e0fc000
00000000
00000000
ENDCHAR
STARTCHAR ch-73
ENCODING 73
SWIDTH 235 0
DWIDTH 8 0
BBX 8 34 0 0
BITMAP
00000000
00000000
00000000
00000000
00000000
00000000
00000000
00000000
00000000
00000000
00000000
00000000
00000000
7e000000
14000000
14000000
14000000
14000000
14000000
14000000
14000000
14000000
14000000
14000000
14000000
14000000
14000000
14000000
14000000
14000000
14000000
7e000000
00000000
00000000
ENDCHAR
STARTCHAR ch-75
ENCODING 75
SWIDTH 529 0
DWIDTH 18 0
BBX 18 34 0 0
BITMAP
00000000
00000000
00000000
00000000
00000000
00000000
00000000
00000000
00000000
00000000
00000000
00000000
00000000
7e0f0000
14040000
14080000
14180000
14300000
14600000
14c00000
16800000
17000000
17800000
17c00000
15e00000
14e00000
14700000
14380000
141c0000
141e0000
140f0000
7e0fc000
00000000
00000000
ENDCHAR
STARTCHAR ch-76
ENCODING 76
SWIDTH 470 0
DWIDTH 16 0
BBX 16 34 0 0
BITMAP
00000000
00000000
00000000
00000000
00000000
00000000
00000000
00000000
00000000
00000000
00000000
00000000
00000000
7e000000
14000000
14000000
14000000
14000000
14000000
14000000
14000000
14000000
14000000
14000000
14000000
14000000
14000000
14010000
14010000
14030000
14030000
7fff0000
00000000
00000000
ENDCHAR
STARTCHAR ch-77
ENCODING 77
SWIDTH 676 0
DWIDTH 23 0
BBX 23 34 0 0
BITMAP
00000000
00000000
00000000
00000000
00000000
00000000
00000000
00000000
00000000
00000000
00000000
00000000
00000000
7c001e00
14003800
1c003800
1e007800
1a005800
1f005800
15009800
17009800
13819800
12811800
13c11800
11421800
11c21800
10e61800
10a41800
10f41800
10581800
10781800
7c387e00
00000000
00000000
ENDCHAR
STARTCHAR ch-78
ENCODING 78
SWIDTH 529 0
DWIDTH 18 0
BBX 18 34 0 0
BITMAP
00000000
00000000
00000000
00000000
00000000
00000000
00000000
00000000
00000000
00000000
00000000
00000000
00000000
7c07c000
14010000
1e010000
1e010000
17010000
17810000
12810000
13c10000
11c10000
10e10000
10f10000
10510000
10790000
10390000
101d0000
101f0000
100b0000
100f0000
7c07c000
00000000
00000000
ENDCHAR
STARTCHAR ch-79
ENCODING 79
SWIDTH 558 0
DWIDTH 19 0
BBX 19 34 0 0
BITMAP
00000000
00000000
00000000
00000000
00000000
00000000
00000000
00000000
00000000
00000000
00000000
00000000
00000000
07ff0000
0c018000
1401c000
14014000
14014000
14014000
14014000
14014000
14014000
14014000
14014000
14014000
14014000
14014000
14014000
14014000
14014000
1c018000
0fff0000
00000000
00000000
ENDCHAR
STARTCHAR ch-80
ENCODING 80
SWIDTH 441 0
DWIDTH 15 0
BBX 15 34 0 0
BITMAP
00000000
00000000
00000000
00000000
00000000
00000000
00000000
00000000
00000000
00000000
00000000
00000000
00000000
7ffc0000
14060000
14060000
14040000
14040000
14040000
14040000
14040000
14060000
17fe0000
14000000
14000000
14000000
14000000
14000000
14000000
14000000
14000000
7e000000
00000000
00000000
ENDCHAR
STARTCHAR ch-83
ENCODING 83
SWIDTH 441 0
DWIDTH 15 0
BBX 15 34 0 0
BITMAP
00000000
00000000
00000000
00000000
00000000
00000000
00000000
00000000
00000000
00000000
00000000
00000000
00000000
1ffc0000
300c0000
700c0000
50040000
50040000
50000000
50000000
50000000
70000000
3ff80000
000c0000
000c0000
000c0000
000c0000
400c0000
600c0000
600c0000
700c0000
7ff80000
00000000
00000000
ENDCHAR
STARTCHAR ch-84
ENCODING 84
SWIDTH 558 0
DWIDTH 19 0
BBX 19 34 0 0
BITMAP
00000000
00000000
00000000
00000000
00000000
00000000
00000000
00000000
00000000
00000000
00000000
00000000
00000000
7fffc000
70a1c000
60a0c000
60a0c000
40a04000
00a00000
00a00000
00a00000
00a00000
00a00000
00a00000
00a00000
00a00000
00a00000
00a00000
00a00000
00a00000
00a00000
03f80000
00000000
00000000
ENDCHAR
STARTCHAR ch-85
ENCODING 85
SWIDTH 470 0
DWIDTH 16 0
BBX 16 34 0 0
BITMAP
00000000
00000000
00000000
00000000
00000000
00000000
00000000
00000000
00000000
00000000
00000000
00000000
00000000
fc3f0000
500c0000
500c0000
500c0000
500c0000
500c0000
500c0000
500c0000
500c0000
500c0000
500c0000
500c0000
500c0000
500c0000
500c0000
500c0000
500c0000
700c0000
3ff80000
00000000
00000000
ENDCHAR
STARTCHAR ch-86
ENCODING 86
SWIDTH 558 0
DWIDTH 19 0
BBX 19 34 0 0
BITMAP
00000000
00000000
00000000
00000000
00000000
00000000
00000000
00000000
00000000
00000000
00000000
00000000
00000000
fc01e000
5000c000
78008000
28008000
38018000
1c010000
14030000
1e020000
0a020000
0e060000
07040000
050c0000
07880000
02880000
03980000
01d00000
01700000
01e00000
00e00000
00000000
00000000
ENDCHAR
STARTCHAR ch-89
ENCODING 89
SWIDTH 470 0
DWIDTH 16 0
BBX 16 34 0 0
BITMAP
00000000
00000000
00000000
00000000
00000000
00000000
00000000
00000000
00000000
00000000
00000000
00000000
00000000
fc0f0000
70040000
380c0000
3c180000
14100000
1e300000
0e200000
07600000
07c00000
02800000
02800000
02800000
02800000
02800000
02800000
02800000
02800000
02800000
07e00000
00000000
00000000
ENDCHAR
ENDFONT
